<svg width="16" height="16" viewBox="0 0 16 16" fill="none" xmlns="http://www.w3.org/2000/svg">
<path d="M7.96269 5.50102C7.60427 5.50029 7.25434 5.39361 6.95824 5.19481C6.65985 4.99461 6.42824 4.71205 6.29251 4.38265C6.15587 4.05141 6.12047 3.68811 6.19064 3.33734C6.26065 2.98656 6.43295 2.66467 6.68616 2.4117C6.93795 2.1595 7.2606 1.98718 7.61264 1.91689C7.96364 1.84722 8.32781 1.88317 8.65776 2.02006C8.98945 2.15808 9.27196 2.39007 9.46937 2.68654C9.70216 3.0356 9.80665 3.45255 9.76547 3.86814C9.72429 4.28373 9.53992 4.67294 9.24299 4.97113C9.07597 5.13865 8.87675 5.27177 8.65694 5.36274C8.43713 5.45371 8.20113 5.50072 7.96269 5.50102ZM7.96269 2.31513C7.6902 2.31513 7.42441 2.3956 7.19803 2.54705C6.97165 2.6981 6.79516 2.9131 6.69077 3.16484C6.58653 3.41674 6.55928 3.69313 6.61238 3.96007C6.66562 4.22707 6.79684 4.47262 6.98968 4.66493C7.1802 4.85755 7.42534 4.98908 7.69304 5.04232C7.96074 5.09555 8.23853 5.06801 8.49007 4.96329C8.74118 4.8593 8.95625 4.68267 9.10758 4.45652C9.28479 4.19102 9.3644 3.87385 9.33321 3.55766C9.30202 3.24147 9.1619 2.9453 8.93612 2.71832C8.80918 2.59087 8.65772 2.48958 8.49059 2.42036C8.32347 2.35114 8.14401 2.31536 7.96269 2.31513Z" fill="#FFF4B8"/>
<path d="M8.00042 16C5.89132 15.9979 3.86815 15.1643 2.37028 13.6795C0.872399 12.1951 0.0209611 10.1796 0 8.07077V7.99979C0 5.87862 0.842635 3.84328 2.34345 2.34319C3.843 0.842692 5.8779 0 8 0C10.1213 0 12.1566 0.842692 13.657 2.34319C15.1569 3.84328 16 5.87821 16 7.99979V8.07077C15.979 10.1796 15.1268 12.1947 13.6289 13.6791C12.8922 14.412 12.0157 14.9944 11.0496 15.3927C10.0835 15.791 9.04697 15.9974 7.99958 16H8.00042ZM0.432636 8.03528C0.424472 9.53079 0.861554 10.9959 1.68988 12.2496C2.51149 13.4945 3.69095 14.4705 5.07803 15.0533C6.45782 15.6315 7.98262 15.7868 9.45344 15.499C10.9284 15.2089 12.2814 14.4907 13.3379 13.4368C14.4029 12.3746 15.1267 11.0274 15.4194 9.56302C15.7145 8.09388 15.5669 6.57068 14.9951 5.18573C14.4276 3.80566 13.4579 2.62177 12.2081 1.78319C10.9675 0.951569 9.50141 0.506411 8.00042 0.505532C7.0071 0.50779 6.02409 0.703855 5.10822 1.08239C4.19236 1.46093 3.3618 2.01443 2.66457 2.71089C1.24301 4.1308 0.441971 6.04171 0.432636 8.03528Z" fill="#FFF4B8"/>
<path d="M3.47115 14.2498H3.32568V13.0266C3.35018 11.6719 3.90775 10.3793 4.88099 9.42106C5.84526 8.47167 7.15268 7.93754 8.51648 7.93583C9.87602 7.93583 11.1811 8.46901 12.1515 9.42106C13.1249 10.3792 13.6827 11.6718 13.7073 13.0266V13.4633H13.5618V13.0147C13.5375 11.698 12.9953 10.442 12.0493 9.51103C11.1121 8.58878 9.84164 8.06995 8.51648 8.0683C7.19118 8.06984 5.92058 8.58867 4.98328 9.51103C4.03739 10.4421 3.49531 11.6981 3.47115 13.0147V14.2498Z" fill="#FFF4B8"/>
<path d="M4.89902 14.9089H4.75355V6.01026C4.7511 5.3063 4.60141 4.61037 4.31379 3.96585C4.02788 3.32416 3.60959 2.74797 3.08547 2.27386L3.18357 2.16533C3.72308 2.65385 4.15351 3.24746 4.44752 3.90849C4.74319 4.57237 4.89674 5.2891 4.8986 6.01398L4.89902 14.9089ZM14.2481 12.9561C13.1606 12.6589 12.1939 12.0271 11.4854 11.1506C10.7751 10.2702 10.3601 9.19426 10.2978 8.0716C10.234 6.9479 10.5258 5.83238 11.1328 4.8787C11.7347 3.93166 12.6245 3.19549 13.6758 2.77486L13.8389 3.16855C12.8724 3.55482 12.0541 4.23121 11.5005 5.10154C10.9421 5.9782 10.6736 7.00378 10.7321 8.03693C10.7891 9.06917 11.1705 10.0584 11.8237 10.8679C12.4715 11.6709 13.3608 12.2516 14.3642 12.5269L14.2481 12.9561Z" fill="#FFF4B8"/>
</svg>
