<svg width="136" height="39" fill="none" xmlns="http://www.w3.org/2000/svg"><g clip-path="url(#a)" fill="#FFF4B8"><path d="M18.994 13.33a4.268 4.268 0 0 1-2.396-.742 4.369 4.369 0 0 1-1.588-1.968 4.448 4.448 0 0 1-.243-2.533c.167-.85.578-1.63 1.182-2.243a4.296 4.296 0 0 1 2.21-1.199 4.254 4.254 0 0 1 2.493.25 4.331 4.331 0 0 1 1.936 1.615 4.433 4.433 0 0 1-.54 5.536 4.287 4.287 0 0 1-3.054 1.284Zm0-7.72c-.65 0-1.284.195-1.824.562-.54.366-.961.887-1.21 1.497a3.384 3.384 0 0 0-.187 1.927c.127.647.44 1.242.9 1.708a3.236 3.236 0 0 0 3.579.723c.599-.252 1.112-.68 1.473-1.228a3.373 3.373 0 0 0-.409-4.212 3.258 3.258 0 0 0-2.322-.977Z"/><path d="M19.084 38.771c-5.031-.005-9.857-2.025-13.43-5.623C2.081 29.551.05 24.667 0 19.557v-.172c0-5.14 2.01-10.072 5.59-13.707C9.167 2.042 14.021 0 19.083 0c5.06 0 9.915 2.042 13.494 5.678 3.578 3.635 5.589 8.566 5.589 13.707v.172c-.05 5.11-2.083 9.993-5.656 13.59a18.956 18.956 0 0 1-13.428 5.624Zm-18.052-19.3a18.547 18.547 0 0 0 2.999 10.212 18.12 18.12 0 0 0 8.082 6.794 17.791 17.791 0 0 0 10.437 1.08 17.964 17.964 0 0 0 9.266-4.997 18.428 18.428 0 0 0 4.965-9.387c.704-3.56.352-7.251-1.012-10.607a18.279 18.279 0 0 0-6.648-8.245 17.852 17.852 0 0 0-10.037-3.096A17.928 17.928 0 0 0 6.356 6.569a18.502 18.502 0 0 0-5.324 12.902Z"/><path d="M8.28 34.53h-.347v-2.964a12.676 12.676 0 0 1 3.71-8.737 12.285 12.285 0 0 1 8.672-3.599c3.243 0 6.356 1.292 8.671 3.599a12.676 12.676 0 0 1 3.711 8.737v1.058h-.347v-1.087a12.321 12.321 0 0 0-3.608-8.49 11.941 11.941 0 0 0-8.427-3.496 11.941 11.941 0 0 0-8.428 3.496 12.321 12.321 0 0 0-3.607 8.49v2.993Z"/><path d="M11.686 36.127h-.347V14.564A12.423 12.423 0 0 0 10.29 9.61a12.251 12.251 0 0 0-2.93-4.1l.234-.263a12.612 12.612 0 0 1 3.015 4.224 12.787 12.787 0 0 1 1.076 5.102v21.554ZM33.987 31.395c-2.594-.72-4.9-2.251-6.59-4.375a13.15 13.15 0 0 1-2.833-7.461 13.186 13.186 0 0 1 1.992-7.737 12.873 12.873 0 0 1 6.066-5.098l.389.954a11.833 11.833 0 0 0-5.578 4.684 12.12 12.12 0 0 0-1.833 7.113 12.084 12.084 0 0 0 2.604 6.86 11.775 11.775 0 0 0 6.06 4.02l-.277 1.04Z"/><path d="M56.284 2.192h.23l-5.982 14h-.403l-5.981-14h1.768l5.16 12.118 5.208-12.118ZM108.29 2.192h.23l-5.982 14h-.403l-5.981-14h1.768l5.161 12.118 5.207-12.118ZM59.939 16.174h-1.623V2.206h1.623v13.968ZM111.944 16.174h-1.623V2.206h1.623v13.968ZM71.995 2.206v.215h-4.33v13.757H66.05V2.421H61.69v-.215h10.306ZM83.207 16.226H81.17l-4.725-6.304-1.026.305v5.966h-1.624V2.216H79.153c.28.022.556.08.822.172a3.374 3.374 0 0 1 1.52 1.096c.485.598.747 1.35.74 2.125a3.586 3.586 0 0 1-.553 1.906 3.213 3.213 0 0 1-1.66 1.34c-.428.152-.869.29-1.31.404-.206.053-.403.11-.6.172l5.095 6.795Zm-7.787-6.194.13-.043 1.084-.32a18.12 18.12 0 0 0 2.126-.71c.43-.298.793-.688 1.06-1.143.362-.63.552-1.348.548-2.078a4.37 4.37 0 0 0-.403-1.825 3.448 3.448 0 0 0-1.267-1.458h-3.283l.004 7.576ZM94.621 2.168h.211v8.86c.002.51-.07 1.02-.21 1.51a5.128 5.128 0 0 1-1.22 2.14c-.448.48-.987.863-1.586 1.124a4.66 4.66 0 0 1-2.695.316 4.701 4.701 0 0 1-2.423-1.24l-.206-.2a5.247 5.247 0 0 1-1.407-3.308V2.235h1.623v9.855a4.913 4.913 0 0 0 .554 2.14c.215.407.513.763.876 1.043a3.42 3.42 0 0 0 1.483.653l.338.052a4.308 4.308 0 0 0 1.81-.386 4.693 4.693 0 0 0 1.492-1.067c.43-.457.77-.992 1.004-1.578a5.028 5.028 0 0 0 .366-1.906l-.01-8.873ZM118.911 2.206l5.006 13.996h-1.727l-1.309-3.664h-5.591a41.5 41.5 0 0 0-.31.857l-.497 1.378c-.136.39-.258.724-.357.996-.098.271-.15.414-.155.433h-.22l.788-2.197c.469-1.386 1.069-2.983 1.721-4.803.653-1.82 1.225-3.422 1.722-4.804l.784-2.192h.145Zm-.821 2.516-.08.21-.075.215c-.126.352-.253.705-.375 1.053s-.258.715-.385 1.067c-.126.353-.272.753-.403 1.13l-.408 1.134-.591 1.649-.103.28-.108.31c-.047.13-.094.253-.136.382l-.066.171h5.456l-.69-1.906-.07-.21-1.966-5.485ZM135.349 2.15v14.014h-.399L125.995 4.59v11.542h-.202V2.164h.394l8.96 11.585v-11.6h.202ZM54.271 22.059v.21h-4.273v13.58h-1.595V22.27h-4.307v-.21h10.175Z" stroke="#fff" stroke-width=".431"/><path d="M48.534 35.722h1.337V22.188h-1.337v13.534ZM65.338 35.898H63.33l-4.667-6.229-1.014.3v5.89h-1.6V22.07h4.607c.202 0 .427 0 .68.023.277.02.55.078.812.172.59.209 1.11.582 1.501 1.077.48.59.739 1.332.732 2.097a3.528 3.528 0 0 1-.549 1.863 3.195 3.195 0 0 1-1.637 1.325c-.429.149-.86.282-1.295.4-.202.052-.399.105-.591.167l5.029 6.705Zm-7.703-6.134.132-.042c.243-.067.6-.172 1.069-.315.714-.186 1.414-.42 2.097-.7a3.47 3.47 0 0 0 1.046-1.13c.36-.62.547-1.329.544-2.049 0-.623-.136-1.238-.399-1.801a3.387 3.387 0 0 0-1.247-1.43h-3.242v7.468ZM71.567 22.06l4.95 13.819h-1.703l-1.295-3.622h-5.526c-.052.138-.15.42-.31.853-.16.434-.314.882-.47 1.358-.14.386-.257.71-.35.982-.095.271-.15.41-.155.429h-.22c.027-.08.287-.804.778-2.173l1.698-4.737 1.698-4.765.774-2.164.131.02Zm-.797 2.463c-.023.071-.052.143-.08.214l-.07.21-.376 1.039c-.126.352-.253.7-.374 1.053-.123.353-.268.743-.4 1.115-.13.372-.271.744-.403 1.12l-.582 1.625-.103.276-.108.305-.136.381c0 .058-.042.11-.06.167h5.385l-.68-1.906-.071-.205-1.942-5.394ZM86.673 24.09c.951.961 1.6 2.19 1.862 3.526a6.959 6.959 0 0 1-1.862 6.228 6.727 6.727 0 0 1-3.612 1.906 5.885 5.885 0 0 1-.582.081c-.197.02-.403 0-.605 0h-3.598v-13.79h3.584c.314 0 .628.022.938.066l.248.038a6.744 6.744 0 0 1 3.627 1.944Zm-3.612 11.436h.117a6.869 6.869 0 0 0 3.64-6.042v-1.149a6.808 6.808 0 0 0-3.326-5.88l-.422-.096a6.54 6.54 0 0 0-1.186-.11h-1.985v13.377h1.985c.393.007.788-.022 1.177-.086v-.014ZM99.156 22.278H92.29v5.947h4.4v.21h-4.4v7.215h6.867v.21h-8.444V22.067h8.444v.21Z" stroke="#fff" stroke-width=".431"/></g><defs><clipPath id="a"><path fill="#fff" d="M0 0h136v39H0z"/></clipPath></defs></svg>