<svg xmlns="http://www.w3.org/2000/svg" width="13" height="14" viewBox="0 0 13 14" fill="none">
  <path d="M10.0001 12.7222C10.9942 12.7222 11.8001 11.9172 11.8001 10.9241C11.8001 9.93098 10.9942 9.12598 10.0001 9.12598C9.00593 9.12598 8.20007 9.93098 8.20007 10.9241C8.20007 11.9172 9.00593 12.7222 10.0001 12.7222Z" stroke="white" stroke-linecap="round" stroke-linejoin="round"/>
  <path d="M10.0001 4.33108C10.9942 4.33108 11.8001 3.52604 11.8001 2.53298C11.8001 1.53993 10.9942 0.734894 10.0001 0.734894C9.00593 0.734894 8.20007 1.53993 8.20007 2.53298C8.20007 3.52604 9.00593 4.33108 10.0001 4.33108Z" stroke="white" stroke-linecap="round" stroke-linejoin="round"/>
  <path d="M2.8 8.5266C3.79411 8.5266 4.6 7.7216 4.6 6.72851C4.6 5.73543 3.79411 4.93042 2.8 4.93042C1.80589 4.93042 1 5.73543 1 6.72851C1 7.7216 1.80589 8.5266 2.8 8.5266Z" stroke="white" stroke-linecap="round" stroke-linejoin="round"/>
  <path d="M8.50005 3.43201L4.30005 5.82946" stroke="white"/>
  <path d="M4.30005 7.62759L8.50005 10.025" stroke="white"/>
</svg>