<svg xmlns="http://www.w3.org/2000/svg" width="24" height="24" fill="none"><path stroke="#fff" stroke-linecap="round" stroke-linejoin="round" stroke-width="1.5" d="M20.8 10.263C20.8 5.147 16.86 1 12 1c-4.86 0-8.8 4.147-8.8 9.263"/><path stroke="#fff" stroke-width="1.5" d="M1 15.402V13.23c0-1.063.687-1.989 1.666-2.246l1.914-.504c.416-.11.82.222.82.674v6.326c0 .452-.404.783-.82.674l-1.914-.504C1.687 17.391 1 16.465 1 15.402ZM23 15.402V13.23c0-1.063-.687-1.989-1.666-2.246l-1.914-.504c-.417-.11-.82.222-.82.674v6.326c0 .452.403.783.82.674l1.914-.504c.979-.258 1.666-1.184 1.666-2.247ZM20.8 18.368v.58c0 1.278-.985 2.315-2.2 2.315h-3.85"/><path stroke="#fff" stroke-width="1.5" d="M13.65 23h-3.3c-.911 0-1.65-.778-1.65-1.737 0-.959.739-1.737 1.65-1.737h3.3c.911 0 1.65.778 1.65 1.737 0 .96-.739 1.737-1.65 1.737Z"/></svg>