<svg width="800" height="800" viewBox="-2.5 0 32 32" xmlns="http://www.w3.org/2000/svg" fill="#ffffff"><path d="M16.563 15.75c-.5-.188-.5-.906-.531-1.406-.125-1.781.5-4.5-.25-5.656-.531-.688-3.094-.625-4.656-.531-.438.063-.969.156-1.344.344s-.75.5-.75.781c0 .406.938.344 1.281.875.375.563.375 1.781.375 2.781 0 1.156-.188 2.688-.656 2.75-.719.031-1.125-.688-1.5-1.219a20.851 20.851 0 0 1-2.063-3.563c-.281-.656-.438-1.375-.844-1.656-.625-.438-1.75-.469-2.844-.438-1 .031-2.438-.094-2.719.5-.219.656.25 1.281.5 1.813 1.281 2.781 2.656 5.219 4.344 7.531 1.563 2.156 3.031 3.875 5.906 4.781.813.25 4.375.969 5.094 0 .25-.375.188-1.219.313-1.844s.281-1.25.875-1.281c.5-.031.781.406 1.094.719.344.344.625.625.875.938.594.594 1.219 1.406 1.969 1.719 1.031.438 2.625.313 4.125.25 1.219-.031 2.094-.281 2.188-1 .063-.563-.563-1.375-.938-1.844-.938-1.156-1.375-1.5-2.438-2.563-.469-.469-1.063-.969-1.063-1.531-.031-.344.25-.656.5-1 1.094-1.625 2.188-2.781 3.188-4.469.281-.5.938-1.656.688-2.219-.281-.625-1.844-.438-2.813-.438-1.25 0-2.875-.094-3.188.156-.594.406-.844 1.063-1.125 1.688-.625 1.438-1.469 2.906-2.344 4-.313.375-.906 1.156-1.25 1.031z"/></svg>